<svg xmlns="http://www.w3.org/2000/svg" version="1.1" xmlns:xlink="http://www.w3.org/1999/xlink" xmlns:svgjs="http://svgjs.com/svgjs" width="1440" height="500" preserveAspectRatio="none" viewBox="0 0 1440 500"><g mask="url(&quot;#SvgjsMask1146&quot;)" fill="none"><rect width="1440" height="500" x="0" y="0" fill="rgba(0, 0, 0, 1)"></rect><path d="M1262.47 331.57 a117.86 117.86 0 1 0 235.72 0 a117.86 117.86 0 1 0 -235.72 0z" fill="rgba(55, 19, 19, 0.53)" class="triangle-float2"></path><path d="M82.51 262.4 a150.2 150.2 0 1 0 300.4 0 a150.2 150.2 0 1 0 -300.4 0z" fill="rgba(55, 19, 19, 0.53)" class="triangle-float1"></path><path d="M166.36,179.421C193.605,180.534,223.357,173.452,236.632,149.634C249.676,126.231,238.661,98.223,224.181,75.68C211.086,55.292,190.564,41.369,166.36,40.228C139.872,38.98,111.67,46.869,98.261,69.746C84.736,92.821,91.267,121.549,105.376,144.272C118.641,165.636,141.234,178.395,166.36,179.421" fill="rgba(55, 19, 19, 0.53)" class="triangle-float3"></path><path d="M1267.92 80.03 a138.18 138.18 0 1 0 276.36 0 a138.18 138.18 0 1 0 -276.36 0z" fill="rgba(55, 19, 19, 0.53)" class="triangle-float3"></path><path d="M747.84 315.37 a111.94 111.94 0 1 0 223.88 0 a111.94 111.94 0 1 0 -223.88 0z" fill="rgba(55, 19, 19, 0.53)" class="triangle-float1"></path><path d="M306.87 366.53 a156.65 156.65 0 1 0 313.3 0 a156.65 156.65 0 1 0 -313.3 0z" fill="rgba(55, 19, 19, 0.53)" class="triangle-float2"></path></g><defs><mask id="SvgjsMask1146"><rect width="1440" height="500" fill="#ffffff"></rect></mask><style>
            @keyframes float1 {
                0%{transform: translate(0, 0)}
                50%{transform: translate(-10px, 0)}
                100%{transform: translate(0, 0)}
            }

            .triangle-float1 {
                animation: float1 5s infinite;
            }

            @keyframes float2 {
                0%{transform: translate(0, 0)}
                50%{transform: translate(-5px, -5px)}
                100%{transform: translate(0, 0)}
            }

            .triangle-float2 {
                animation: float2 4s infinite;
            }

            @keyframes float3 {
                0%{transform: translate(0, 0)}
                50%{transform: translate(0, -10px)}
                100%{transform: translate(0, 0)}
            }

            .triangle-float3 {
                animation: float3 6s infinite;
            }
        </style></defs></svg>